<?xml version="1.0" encoding="utf-8"?>
<!-- Generator: Adobe Illustrator 24.3.0, SVG Export Plug-In . SVG Version: 6.00 Build 0)  -->
<svg version="1.1" id="Layer_1" xmlns="http://www.w3.org/2000/svg" xmlns:xlink="http://www.w3.org/1999/xlink" x="0px" y="0px"
	 viewBox="0 0 485 485" style="enable-background:new 0 0 485 485;" xml:space="preserve">
<style type="text/css">
	.st0{fill:#E42364;}
</style>
<g>
	<ellipse class="st0" cx="213.8" cy="39.4" rx="30.4" ry="30.4"/>
	<circle class="st0" cx="436.5" cy="427.4" r="47.9"/>
	
		<ellipse transform="matrix(3.327949e-02 -0.9994 0.9994 3.327949e-02 -406.7886 434.3254)" class="st0" cx="21.1" cy="427.4" rx="21.1" ry="21.1"/>
	<path class="st0" d="M213.6,101.9c-102.3,0-185.2,82.9-185.2,185.2s82.9,185.2,185.2,185.2s185.2-82.9,185.2-185.2
		S316,101.9,213.6,101.9L213.6,101.9z M88.2,215.2l125.1-72.3l124.8,72.3v65.4l-57.4-18.5v-13.5l-67.3-39l-49.5,28.7l174.3,55.8
		v65.4L213,431.7l-125.1-72v-65.7l57.8,18.2v13.5l67.3,39l50.2-29l-175-55.5L88.2,215.2z"/>
</g>
</svg>
