<?xml version="1.0" encoding="utf-8"?>
<!-- Generator: Adobe Illustrator 24.3.0, SVG Export Plug-In . SVG Version: 6.00 Build 0)  -->
<svg version="1.1" id="Layer_1" xmlns="http://www.w3.org/2000/svg" xmlns:xlink="http://www.w3.org/1999/xlink" x="0px" y="0px"
	 viewBox="0 0 485 485" style="enable-background:new 0 0 485 485;" xml:space="preserve">
<style type="text/css">
	.st0{fill:#E42364;}
</style>
<path class="st0" d="M314.4,242.5L399.3,96l41,146.6l-41,146.5L314.4,242.5L314.4,242.5z M273.1,266.3L358,412.8L210.1,375
	L103.3,266.3H273.1z M357.9,72.1l-84.9,146.6H103.3L210.1,110L357.9,72.1z M479.1,192.6L427.3,0L234,51.6l-28.6,50.3l-58-0.4
	L5.9,242.5l141.5,141l0,0l58-0.4l28.7,50.3L427.3,485l51.8-192.6l-29.4-49.9L479.1,192.6L479.1,192.6z"/>
</svg>
