<?xml version="1.0" encoding="utf-8"?>
<!-- Generator: Adobe Illustrator 24.3.0, SVG Export Plug-In . SVG Version: 6.00 Build 0)  -->
<svg version="1.1" id="Layer_1" xmlns="http://www.w3.org/2000/svg" xmlns:xlink="http://www.w3.org/1999/xlink" x="0px" y="0px"
	 viewBox="0 0 485 485" style="enable-background:new 0 0 485 485;" xml:space="preserve">
<style type="text/css">
	.st0{fill-rule:evenodd;clip-rule:evenodd;fill:#E42364;}
	.st1{fill:#E42364;}
</style>
<g>
	<path class="st0" d="M284.2,30.4c22.5-1.2,38.6,23,45.3,39.2c3.9,9.2,7.1,24.3-2.2,28.9c-7.2,3.6-16,4.1-26.2,5.5
		c-24.6,3.2-40.2-2.6-49-17.5c-2.5-4.2-5.2-11.7-3.6-19.2c3.1-14.7,12.2-26.3,23.5-32.9C274.1,33.1,279.5,30.7,284.2,30.4"/>
	<path class="st1" d="M215.6,118.8c13.1,0,26.8,2.1,39.7,5.5c14,3.7,27.2,8.6,38.2,13.1c21.1,8.5,36.7,14.6,36.7,14.6
		s10.7-7.4,14.7-10.1c9.9-6.1,19-12.2,31.2-14.8c3.9-0.9,11.2-0.9,14.8-0.2c14.3,2.6,23.1,8.9,24.3,21c1.6,16.3-19.3,33.7-24.2,38.4
		c-4.4,4.1-25.5,24.1-51.5,26.2c-12.6,1-24.6-3.1-33.2-6.7c-2.9-1.2-10.4-5-10.4-5s-11.5,11-22.1,22.1
		c-10.6,11.1-37.1,43.4-37.1,43.4c29.1-2.1,62.5,7.2,83.7,15.3c49.8,19.2,97.9,53.1,130.4,98.9c11.1,15.7,21.8,33.1,29.8,51.8
		c2.2,5.1,6.6,16,2.7,20.6c-4,4.7-13.2-0.9-18.5-3.5c-9.5-4.6-29.7-20.1-44.3-31.8c-6.7-5.4-17-14.6-18.8-22.8
		c-1.1-5.2,2-12.1,3.1-17.5c1.7-8.6-3.2-15.2-6.7-19.6c-8.1-10.1-22.1-16.5-35.2-21.6c-26.1-10.2-44.3-13.5-88.5-19.1
		s-73.7-2.1-77-2c-3.4,4-7.7,9.2-11.2,13.2c-9.4,9.7-44.3,44.3-54.4,51.9c-18.1,13.7-38.3,26.9-59.6,37.3
		C31.2,437.2,5,434.1,2,430.8s-3.1-12.6,3.1-25.5c6.4-13,21.3-29.7,28.3-36.9c7-7.1,19.8-19,37.3-32.2
		c24.2-18.3,60.9-36.8,79.2-45.8c25.5-12.5,51-18.6,57.4-20.3c35.1-48.2,72.2-78.7,72.2-78.7s-14.8-9.5-21.2-13.7
		c-13.7-9.1-27.2-19-42.9-25.8c-10-4.4-26.3-10.5-40.5-6.9c-17.5,4.4-40.5,17.6-49.8,28.9c-3.1,3.7-5.7,10.6-6.7,16.5
		c-0.9,4.9,0.4,11.6-0.9,15c-2.2,5.9-11.7,11-19.1,14.2c-10.1,4.4-20.3,9-31.8,11.9c-3.9,1-10.7,2.9-12.7,0c-2.7-3.7,1.5-9.5,3-12.1
		c6-10.6,13.2-19.6,20.8-28.7c23.2-27.7,48.4-48.3,83.8-62.4C170.4,124.8,187.5,118.8,215.6,118.8 M388.6,142.9
		c-6,0.6-12.6,1.7-18.1,3.9c-8.1,3.1-15.2,6.9-22.6,11.4c16.2,5,35.1,7.7,49.8-1.1c3.6-2.1,6.9-5.1,7-8.6
		C404.9,144.3,394.6,142.2,388.6,142.9 M168.3,318.8c0,0-8.1,1.5-12.5,2.4c-4.4,0.9-14.5,3.7-21.2,5.5c-18.5,4.9-67.1,23.7-89,45.4
		c-7.1,7.1-12.7,15.6-16.8,25.7c-1.1,2.7-3.5,9.2-1.1,13.1c2,3.2,7.9,4,12.9,2.9c10.4-2.2,19.7-6.5,27.9-11.1
		c31.2-17.2,61.1-42.2,79.7-62.3c6-6.5,13.7-14.5,16-17C166.2,321.1,168.3,318.8,168.3,318.8"/>
</g>
</svg>
