<?xml version="1.0" encoding="utf-8"?>
<!-- Generator: Adobe Illustrator 24.3.0, SVG Export Plug-In . SVG Version: 6.00 Build 0)  -->
<svg version="1.1" id="Capa_1" xmlns="http://www.w3.org/2000/svg" xmlns:xlink="http://www.w3.org/1999/xlink" x="0px" y="0px"
	 viewBox="0 0 477.9 477.9" style="enable-background:new 0 0 477.9 477.9;" xml:space="preserve">
<style type="text/css">
	.st0{opacity:0.7;enable-background:new    ;}
	.st1{fill:#FFFFFF;}
</style>
<path class="st0" d="M394.2,430.8H83.6C37.5,430.8,0,400.2,0,362.5V109c0-37.7,37.5-68.2,83.6-68.2h310.6
	c46.2,0,83.6,30.6,83.6,68.2v253.5C477.9,400.2,440.4,430.8,394.2,430.8z"/>
<g>
	<g>
		<g>
			<path class="st1" d="M386.3,101H141.8c-18.4,0-33.3,14.9-33.3,33.3v155.4c0,18.4,14.9,33.3,33.3,33.3h244.4
				c18.4,0,33.3-14.9,33.3-33.3V134.4C419.6,115.9,404.7,101,386.3,101z M397.4,229.8l-69.9-69.9c-4.3-4.3-11.3-4.3-15.7,0
				L219.6,252l-36.5-36.5c-4.3-4.3-11.3-4.3-15.7,0l-36.6,36.6V134.4c0-6.1,5-11.1,11.1-11.1h244.4c6.1,0,11.1,5,11.1,11.1V229.8
				L397.4,229.8z"/>
		</g>
	</g>
	<g>
		<g>
			<circle class="st1" cx="208.5" cy="178.8" r="33.3"/>
		</g>
	</g>
	<path class="st1" d="M347.2,340.3v0.3c0,6.1-5,7.9-11.1,7.9H91.6c-6.1,0-11.1-5-11.1-11.1l-0.2-129.7c0-23.4-1.1-35.9,11.3-35.9
		v-23.4c-18.4,0.1-33.3,15-33.3,33.4v155.5c0,18.4,14.9,33.3,33.3,33.3H336c18.4,0,33.3-11.7,33.3-30.2v-0.3h-22.1V340.3z"/>
</g>
</svg>
